<?xml version="1.0" encoding="UTF-8" standalone="no"?>
<!-- Created with Inkscape (http://www.inkscape.org/) -->

<svg
   width="6.2664871in"
   height="2.5471454in"
   viewBox="0 0 159.16877 64.697492"
   version="1.1"
   id="svg1"
   inkscape:version="1.3.2 (091e20e, 2023-11-25, custom)"
   sodipodi:docname="pyboy_advance_logo.svg"
   xmlns:inkscape="http://www.inkscape.org/namespaces/inkscape"
   xmlns:sodipodi="http://sodipodi.sourceforge.net/DTD/sodipodi-0.dtd"
   xmlns:xlink="http://www.w3.org/1999/xlink"
   xmlns="http://www.w3.org/2000/svg"
   xmlns:svg="http://www.w3.org/2000/svg">
  <sodipodi:namedview
     id="namedview1"
     pagecolor="#0e1117"
     bordercolor="#666666"
     borderopacity="1.0"
     inkscape:showpageshadow="2"
     inkscape:pageopacity="0.0"
     inkscape:pagecheckerboard="0"
     inkscape:deskcolor="#d1d1d1"
     inkscape:document-units="mm"
     inkscape:zoom="0.32158333"
     inkscape:cx="363.82482"
     inkscape:cy="-111.9461"
     inkscape:window-width="1536"
     inkscape:window-height="890"
     inkscape:window-x="-6"
     inkscape:window-y="-6"
     inkscape:window-maximized="1"
     inkscape:current-layer="g6" />
  <defs
     id="defs1">
    <linearGradient
       id="linearGradient6"
       inkscape:collect="always">
      <stop
         style="stop-color:#a08fd4;stop-opacity:1;"
         offset="0"
         id="stop6" />
      <stop
         style="stop-color:#3f3671;stop-opacity:1;"
         offset="1"
         id="stop7" />
    </linearGradient>
    <linearGradient
       inkscape:collect="always"
       xlink:href="#linearGradient6"
       id="linearGradient7"
       x1="44.038319"
       y1="85.952591"
       x2="166.94653"
       y2="85.952591"
       gradientUnits="userSpaceOnUse" />
  </defs>
  <g
     inkscape:label="Layer 1"
     inkscape:groupmode="layer"
     id="layer1"
     transform="translate(-47.415611,-37.501251)">
    <g
       id="g6"
       transform="translate(14.86756,6.8297753)">
      <g
         id="g5">
        <path
           id="text3"
           style="font-style:normal;font-weight:normal;font-size:50.8px;line-height:1.25;font-family:sans-serif;letter-spacing:-1.05833px;fill:#4672a2;fill-opacity:1;stroke:none;stroke-width:0.264583"
           d="m 143.23636,30.688455 c -5.56498,0.146074 -11.10143,2.434218 -14.91717,6.531994 -3.40263,3.509232 -5.30387,8.342727 -5.39835,13.214041 -0.16462,4.312532 1.16653,8.773365 4.16441,11.952517 3.39815,3.804489 8.48829,5.860969 13.54926,5.922069 5.58703,0.23411 11.39954,-1.47783 15.50566,-5.380892 3.70963,-3.398982 5.91829,-8.284086 6.24296,-13.286424 0.40162,-4.38116 -0.50489,-9.060449 -3.37457,-12.508703 -3.20488,-4.053718 -8.3365,-6.295126 -13.44966,-6.43227 -0.77332,-0.04147 -1.54863,-0.03253 -2.32254,-0.01233 z m -36.4668,0.423828 c -3.61002,0 -7.220047,0 -10.830067,0 -1.73048,12.256325 -3.45657,24.513271 -5.1875,36.769533 6.60737,-0.0356 13.217927,0.0757 19.823197,-0.0669 3.59009,-0.234 7.12354,-1.96168 9.24268,-4.915871 2.57701,-3.355395 2.78794,-8.38495 0.26412,-11.829426 -0.87298,-1.243616 -2.0434,-2.275 -3.38469,-2.988546 2.40439,-1.731899 3.87119,-4.658882 3.77263,-7.62655 0.024,-2.931923 -1.53146,-5.831902 -4.07721,-7.323172 -2.83748,-1.816887 -6.34425,-2.068186 -9.62316,-2.019028 z m 53.98633,0.708984 c 2.49281,6.863344 4.99131,13.725145 7.48633,20.587891 -0.72312,5.157487 -1.44252,10.315499 -2.16797,15.472658 3.16927,0 6.33854,0 9.50781,0 0.70724,-5.070647 1.41967,-10.140572 2.12891,-15.210939 4.66852,-7.186261 9.33783,-14.37201 14.00586,-21.558594 -3.47852,0 -6.95703,0 -10.43555,0 -2.37991,3.972182 -4.76046,7.943981 -7.14062,11.916016 -1.33391,-3.972032 -2.66844,-7.943852 -4.00196,-11.916016 -3.21289,0 -6.42578,0 -9.63867,0 0.0853,0.236328 0.17058,0.472656 0.25586,0.708984 z m -53.45898,7.212891 c 1.31271,0.03233 3.09711,0.10375 3.68244,1.522459 0.59921,1.613629 -0.50732,3.615719 -2.258,3.810385 -1.72553,0.376824 -3.50213,0.01787 -5.24085,0.206219 0.3629,-1.832191 0.57871,-3.695029 0.88477,-5.539063 0.97721,0 1.95442,0 2.93164,0 z m 36.5625,0.148437 c 3.53244,-0.130427 7.06276,2.079554 8.27936,5.436143 1.30823,3.699615 0.41929,8.046857 -2.06595,11.056314 -2.05068,2.559729 -5.24641,4.215066 -8.55441,4.143629 -3.04672,0.07477 -6.17918,-1.42634 -7.67995,-4.145525 -1.55445,-2.806973 -1.52513,-6.32861 -0.3583,-9.268306 1.53332,-3.839881 5.30728,-6.917788 9.42417,-7.183192 0.31806,-0.02175 0.6363,-0.03483 0.95508,-0.03906 z m -37.13477,13.246094 c 1.82523,0.01318 4.00316,0.336845 5.05702,2.013945 1.01732,1.965882 -0.12746,4.73149 -2.34176,5.213372 -2.18581,0.61331 -4.48093,0.205585 -6.71604,0.329324 -0.43908,-0.148944 -1.64843,0.36467 -1.37692,-0.395505 0.36093,-2.387045 0.72185,-4.77409 1.08278,-7.161136 1.43164,0 2.86328,0 4.29492,0 z" />
        <path
           id="text4"
           style="font-style:normal;font-weight:normal;font-size:50.8px;line-height:1.25;font-family:sans-serif;letter-spacing:-1.05833px;fill:#f8d848;fill-opacity:1;stroke:none;stroke-width:0.264583"
           d="m 38.137893,31.129656 c -0.777553,-0.209404 -0.451835,0.843879 -0.641225,1.310223 -1.64955,11.819768 -3.299016,23.639548 -4.948619,35.459299 3.166666,0 6.333333,0 9.5,0 0.613409,-4.351443 1.225133,-8.703134 1.83789,-13.054678 3.910985,-0.0397 8.012592,0.378296 11.690322,-1.258071 3.332604,-1.402685 5.988761,-4.476194 6.539584,-8.094903 0.750142,-3.687256 0.150349,-7.913583 -2.580182,-10.682589 -2.61598,-2.742855 -6.542803,-3.848298 -10.252831,-3.670634 -3.714932,-0.01956 -7.429971,-0.0065 -11.144939,-0.0086 z m 24.24414,0.708984 c 2.492232,6.862665 4.989993,13.723848 7.484375,20.585938 -0.72059,5.158219 -1.442095,10.31631 -2.162109,15.4746 3.167969,0 6.335938,0 9.503908,0 0.70671,-5.071269 1.41834,-10.141866 2.12695,-15.212881 4.66851,-7.185618 9.33791,-14.370663 14.00586,-21.556641 -3.47786,0 -6.95573,0 -10.43359,0 -2.3805,3.972221 -4.76178,7.943974 -7.14258,11.916016 -1.33328,-3.972026 -2.66703,-7.943888 -4,-11.916016 -3.212892,0 -6.425783,0 -9.638673,0 0.08529,0.236328 0.170573,0.472656 0.255859,0.708984 z m -15.427734,6.888672 c 1.956184,-0.01747 4.298228,0.428317 5.31861,2.29812 1.027491,2.08127 0.06488,4.987265 -2.21537,5.740159 -1.619742,0.655471 -3.402682,0.524792 -5.113006,0.533987 0.391927,-2.857422 0.783854,-5.714844 1.175781,-8.572266 0.277995,0 0.55599,0 0.833985,0 z" />
      </g>
      <path
         id="text5"
         style="font-style:normal;font-weight:normal;font-size:25.4px;line-height:1.25;font-family:sans-serif;letter-spacing:1.05833px;fill:url(#linearGradient7);fill-opacity:1;stroke:none;stroke-width:0.264583"
         d="m 52.887927,76.836918 c -2.949856,6.102871 -5.899826,12.205687 -8.849609,18.308594 1.747396,0 3.494791,0 5.242187,0 0.55931,-1.262194 1.124086,-2.521964 1.685547,-3.783204 1.527344,10e-7 3.054688,0 4.582031,0 0.177817,1.261057 0.354815,2.522228 0.533203,3.783204 1.623698,0 3.247396,0 4.871094,0 -1.07764,-6.202558 -2.156754,-12.404861 -3.234375,-18.607422 -1.561849,0 -3.123698,0 -4.685547,0 -0.04818,0.09961 -0.09635,0.199218 -0.144531,0.298828 z m 50.093753,0 c -2.94986,6.102871 -5.899829,12.205687 -8.849609,18.308594 1.74739,0 3.49479,0 5.242184,0 0.55931,-1.262194 1.124085,-2.521964 1.685555,-3.783204 1.52734,0 3.05469,0 4.58203,0 0.17782,1.261057 0.35481,2.522228 0.5332,3.783204 1.62305,0 3.2461,0 4.86914,0 -1.07764,-6.202558 -2.15675,-12.404861 -3.23437,-18.607422 -1.5612,0 -3.1224,0 -4.6836,0 -0.0482,0.09961 -0.0964,0.199219 -0.14453,0.298828 z m 42.64844,-0.289063 c -3.61533,0.05947 -7.32148,1.610409 -9.44948,4.618362 -1.87769,2.63186 -2.27869,6.257947 -1.08627,9.254353 1.23109,2.980668 4.38477,4.831539 7.54598,4.925584 2.52115,0.151846 5.0335,-0.466148 7.3218,-1.497517 0.23851,-1.73322 0.47836,-3.466259 0.71875,-5.199219 -2.48161,1.415947 -5.2991,2.894266 -8.24935,2.332268 -1.80879,-0.281009 -3.19092,-1.981651 -3.13113,-3.805802 -0.17323,-2.943196 2.10835,-5.779543 5.03143,-6.21523 2.14846,-0.389737 4.36645,-0.05229 6.42718,0.608686 0.26784,-1.422846 0.54069,-2.844745 0.80859,-4.267578 -1.93711,-0.500307 -3.93043,-0.833119 -5.9375,-0.753907 z m -80.195318,0.669922 c -0.834625,5.975913 -1.669339,11.951814 -2.503907,17.927735 3.487089,-0.0297 6.978218,0.05893 10.462891,-0.04297 3.963397,-0.304404 7.188073,-3.800786 7.665492,-7.664717 0.475578,-3.023698 -0.300928,-6.393894 -2.661586,-8.475908 -2.082094,-1.927349 -5.062601,-2.304162 -7.785546,-2.201172 -1.704948,0 -3.409896,0 -5.114844,0 -0.02083,0.152344 -0.04167,0.304687 -0.0625,0.457032 z m 16.988281,0.179688 c 1.231504,5.990289 2.465138,11.980142 3.695312,17.970703 0.854168,0 1.708333,0 2.5625,0 2.989543,-6.202179 5.979186,-12.404314 8.966796,-18.607422 -1.6543,0 -3.30859,0 -4.962889,0 -1.365383,2.997565 -2.734674,5.993354 -4.101563,8.990234 -0.564043,-2.996821 -1.131383,-5.993026 -1.693359,-8.990234 -1.532552,0 -3.065105,0 -4.597657,0 0.04362,0.21224 0.08724,0.424479 0.13086,0.636719 z m 33.177737,-0.181641 c -0.84273,5.976522 -1.68315,11.953373 -2.52734,17.929688 1.58398,0 3.16797,0 4.75195,0 0.49326,-3.575082 0.98984,-7.149706 1.48438,-10.72461 2.18404,3.574996 4.36974,7.148977 6.55273,10.72461 1.41797,0 2.83594,0 4.25391,0 0.85285,-6.128618 1.71144,-12.256442 2.5664,-18.384766 -1.58398,0 -3.16796,0 -4.75195,0 -0.47106,3.438843 -0.94275,6.877598 -1.41406,10.316406 -2.13774,-3.438975 -4.27772,-6.876562 -6.41406,-10.316406 -1.47917,0 -2.95834,0 -4.4375,0 -0.0215,0.151693 -0.043,0.303385 -0.0645,0.455078 z m 39.39844,0 c -0.84336,5.976525 -1.68458,11.953354 -2.5293,17.929688 4.58138,0 9.16276,0 13.74415,0 0.18659,-1.315792 0.3733,-2.631567 0.56054,-3.947266 -2.99804,0 -5.99609,0 -8.99414,0 0.16146,-1.164714 0.32292,-2.329427 0.48438,-3.494141 2.09179,0 4.18359,0 6.27539,0 0.1872,-1.320171 0.37045,-2.6409 0.55859,-3.960937 -2.0918,0 -4.18359,0 -6.27539,0 0.14453,-1.007162 0.28906,-2.014323 0.43359,-3.021484 2.37696,-10e-7 4.75391,0 7.13086,0 0.1872,-1.320172 0.37045,-2.640901 0.5586,-3.960938 -3.96094,0 -7.92188,0 -11.88282,0 -0.0215,0.151693 -0.043,0.303385 -0.0644,0.455078 z m -84.013678,3.50586 c 2.044956,-0.08441 4.222245,0.956152 4.978516,2.949218 0.901836,2.495905 0.09773,5.849283 -2.441406,7.044922 -1.659139,0.747394 -3.524412,0.400812 -5.283203,0.482422 0.484375,-3.492187 0.96875,-6.984375 1.453125,-10.476562 0.430989,-10e-7 0.861979,-10e-7 1.292968,0 z m -15.884765,7.115234 c -0.875651,0 -1.751302,0 -2.626953,0 0.67513,-1.675781 1.35026,-3.351563 2.02539,-5.027344 0.200521,1.675781 0.401042,3.351563 0.601563,5.027344 z m 50.093753,0 c -0.87565,0 -1.7513,0 -2.62695,0 0.67513,-1.675781 1.35026,-3.351563 2.02539,-5.027344 0.20052,1.675781 0.40104,3.351563 0.60156,5.027344 z" />
    </g>
  </g>
</svg>
